<?xml version="1.0" standalone="no"?><!DOCTYPE svg PUBLIC "-//W3C//DTD SVG 1.1//EN" "http://www.w3.org/Graphics/SVG/1.1/DTD/svg11.dtd"><svg t="1558319915348" class="icon" style="" viewBox="0 0 1024 1024" version="1.1" xmlns="http://www.w3.org/2000/svg" p-id="5275" xmlns:xlink="http://www.w3.org/1999/xlink" width="200" height="200"><defs><style type="text/css"></style></defs><path d="M514.7 553.9c-65.4 0-127-25.5-173.2-71.8-46.3-46.3-71.8-107.8-71.8-173.2s25.5-127 71.8-173.2 107.8-71.8 173.2-71.8 127 25.5 173.2 71.8 71.8 107.8 71.8 173.2-25.5 127-71.8 173.2c-46.3 46.3-107.8 71.8-173.2 71.8z m0-430c-102 0-185 83-185 185s83 185 185 185 185-83 185-185-83-185-185-185z" p-id="5276" fill="#333333"></path><path d="M95 959.9c-16.6 0-30-13.4-30-30 0-56.9 11.8-112 35.1-163.9 22.4-50 54.5-94.9 95.3-133.4 40.7-38.4 88.1-68.5 140.8-89.5 54.5-21.7 112.3-32.8 171.9-32.8h9.1c59.6 0 117.5 11 171.9 32.8 52.7 21 100.1 51.1 140.8 89.5 40.8 38.5 72.9 83.4 95.3 133.4 23.3 51.9 35.1 107.1 35.1 163.9 0 16.6-13.4 30-30 30s-30-13.4-30-30c0-198.3-171.9-359.6-383.2-359.6H508c-211.1 0-383 161.3-383 359.6 0 16.5-13.5 30-30 30z" p-id="5277" fill="#333333"></path></svg>