<?xml version="1.0" standalone="no"?><!DOCTYPE svg PUBLIC "-//W3C//DTD SVG 1.1//EN" "http://www.w3.org/Graphics/SVG/1.1/DTD/svg11.dtd"><svg t="1558079769116" class="icon" style="" viewBox="0 0 1414 1024" version="1.1" xmlns="http://www.w3.org/2000/svg" p-id="10507" xmlns:xlink="http://www.w3.org/1999/xlink" width="276.171875" height="200"><defs><style type="text/css"></style></defs><path d="M271.224593 335.797077l408.802285 404.972283c0.604737 0.604737 1.411053 0.806316 2.01579 1.310264 0.10079 0.10079 0.201579 0.403158 0.302369 0.503948 14.513691 14.412901 37.997648 14.312112 52.410549-0.201579L1139.694272 333.680497c14.412901-14.513691 14.312112-37.896859-0.201579-52.30976-7.189652-7.088863-16.697463-10.683689-26.104485-10.683689-9.507811 0-19.082815 3.695616-26.306064 10.986057L707.911977 664.270116 323.332773 283.285738c-7.189652-7.088863-16.596674-10.683689-26.104485-10.683689-9.608601 0-19.082815 3.695616-26.306064 10.986057C256.54292 297.900218 256.744499 321.384176 271.224593 335.797077L271.224593 335.797077z" p-id="10508"></path></svg>