<?xml version="1.0" standalone="no"?><!DOCTYPE svg PUBLIC "-//W3C//DTD SVG 1.1//EN" "http://www.w3.org/Graphics/SVG/1.1/DTD/svg11.dtd"><svg t="1558075546268" class="icon" style="" viewBox="0 0 1024 1024" version="1.1" xmlns="http://www.w3.org/2000/svg" p-id="10134" xmlns:xlink="http://www.w3.org/1999/xlink" width="200" height="200"><defs><style type="text/css"></style></defs><path d="M497.12101154 570.14951682c-16.39725257 0-29.75797768-13.05707167-30.36528302-29.45432425-0.45547899-16.70090602 12.60159267-30.82076202 29.45432425-31.27624179L735.94396315 502.13128288h0.45547901c22.92578879 0 42.66322303-15.48629457 48.12897337-37.80477725l36.28651391-149.09354033c0.91095877-3.79566067-0.60730534-6.68036257-1.67009044-7.89497322-1.06278511-1.51826411-3.03652822-3.18835456-6.22488357-3.34018166H451.72491296c-16.70090602 0-30.36528302-13.66437778-30.36528302-30.36528303s13.66437778-30.36528302 30.36528302-30.36528302H814.89369932c20.80021857 0.75913245 39.93034747 10.62784879 52.53193938 27.32875481 12.90524533 16.85273234 17.30821134 38.41208335 12.29794 59.06047558l-36.28651391 149.09354033c-11.99428657 49.49541115-55.87212103 83.96000751-106.58214363 84.26366017l-238.67112528 7.28766867c-0.30365266-0.15182633-0.60730534-0.15182633-1.06278434-0.1518271z" fill="#3b3e40" p-id="10135"></path><path d="M711.80356292 860.44162347m-45.54792492 0a45.54792492 45.54792492 0 1 0 91.09584983 0 45.54792492 45.54792492 0 1 0-91.09584983 0Z" fill="#3b3e40" p-id="10136"></path><path d="M456.12787897 860.44162347m-45.54792492 0a45.54792492 45.54792492 0 1 0 91.09584983 0 45.54792492 45.54792492 0 1 0-91.09584983 0Z" fill="#3b3e40" p-id="10137"></path><path d="M788.62772886 743.07980472H419.23405972c-37.80477725 0-69.23284538-27.02510213-75.00224917-64.37440037L269.38138772 191.79808933c-1.21461144-7.28766789-7.59132056-12.60159267-15.03081479-12.6015919H158.54810442c-16.70090602 0-30.36528302-13.66437778-30.36528302-30.3652838s13.66437778-30.36528302 30.36528302-30.36528301h95.80246851c37.34929824 0 68.92919272 26.8732758 75.00224916 63.76709503v0.30365267l74.85042284 487.21096769c1.21461144 7.43949424 7.43949424 12.90524533 15.03081479 12.90524533h369.39366915c16.70090602 0 30.36528302 13.66437778 30.36528301 30.36528303s-13.66437778 30.06163035-30.36528302 30.06163035z" fill="#3b3e40" p-id="10138"></path></svg>