<?xml version="1.0" standalone="no"?><!DOCTYPE svg PUBLIC "-//W3C//DTD SVG 1.1//EN" "http://www.w3.org/Graphics/SVG/1.1/DTD/svg11.dtd"><svg t="1559269618252" class="icon" style="" viewBox="0 0 1024 1024" version="1.1" xmlns="http://www.w3.org/2000/svg" p-id="6689" xmlns:xlink="http://www.w3.org/1999/xlink" width="200" height="200"><defs><style type="text/css"></style></defs><path d="M816.5 930.4L633 824.5H413.6c-16.6 0-30-13.4-30-30s13.4-30 30-30h235.5l107.4 62v-62h73.1c38.6 0 70-31.4 70-70v-322c0-23.2-13-43.9-33.9-54-14.9-7.2-21.1-25.2-13.9-40.1 7.2-14.9 25.2-21.1 40.1-13.9 20 9.7 36.9 24.7 48.9 43.4 12.3 19.3 18.9 41.6 18.9 64.6v322c0 71.7-58.3 130-130 130h-13.1v105.9z" p-id="6690"></path><path d="M207.1 776V670H194c-71.7 0-130-58.3-130-130V228c0-71.7 58.3-130 130-130h475.1c71.7 0 130 58.3 130 130v312c0 71.7-58.3 130-130 130H390.6L207.1 776zM194 158c-38.6 0-70 31.4-70 70v312c0 38.6 31.4 70 70 70h73.1v62l107.4-62H669c38.6 0 70-31.4 70-70V228c0-38.6-31.4-70-70-70H194z" p-id="6691"></path></svg>