<?xml version="1.0" standalone="no"?><!DOCTYPE svg PUBLIC "-//W3C//DTD SVG 1.1//EN" "http://www.w3.org/Graphics/SVG/1.1/DTD/svg11.dtd"><svg t="1558428573536" class="icon" style="" viewBox="0 0 1024 1024" version="1.1" xmlns="http://www.w3.org/2000/svg" p-id="5405" xmlns:xlink="http://www.w3.org/1999/xlink" width="200" height="200"><defs><style type="text/css"></style></defs><path d="M555.4 512l304.6-304.6c4.8-4.8 4.8-12.6 0-17.4l-26-26c-4.8-4.8-12.6-4.8-17.4 0L512 468.6 207.4 164c-4.8-4.8-12.6-4.8-17.4 0l-26 26c-4.8 4.8-4.8 12.6 0 17.4L468.6 512 164 816.6c-4.8 4.8-4.8 12.6 0 17.4l26 26c4.8 4.8 12.6 4.8 17.4 0L512 555.4l304.6 304.6c4.8 4.8 12.6 4.8 17.4 0l26-26c4.8-4.8 4.8-12.6 0-17.4L555.4 512z" p-id="5406"></path></svg>