<?xml version="1.0" standalone="no"?><!DOCTYPE svg PUBLIC "-//W3C//DTD SVG 1.1//EN" "http://www.w3.org/Graphics/SVG/1.1/DTD/svg11.dtd"><svg t="1558579687809" class="icon" style="" viewBox="0 0 1024 1024" version="1.1" xmlns="http://www.w3.org/2000/svg" p-id="7035" xmlns:xlink="http://www.w3.org/1999/xlink" width="200" height="200"><defs><style type="text/css"></style></defs><path d="M728.27542587 716.93364526H399.42673987v-41.01348202h206.19923895a205.14972189 205.14972189 0 1 1 122.64944706 41.01348202z m1e-8-368.99785986A163.99218933 163.99218933 0 1 0 892.69976929 511.98971021a164.46550095 164.46550095 0 0 0-164.42434341-164.05392481z m-267.11238758 0v-41.01348203h130.88095422a246.80114483 246.80114483 0 0 0-47.12537465 41.01348203h-83.75557957z m-41.15753257 20.57876587V286.50816763h41.15753257L460.54567532 367.93834583z m-61.53051159 286.99147622L398.80937689 656.04107541v82.31506512l-40.33438275-0.92604446V655.42371243z m0-389.49431149L398.80937689 265.04451401v123.47259851l-40.33438275 0.41157531V265.92940093z m-61.73629843 368.99785986L337.07307763 635.46230871v123.47259851l-40.35496068-1.00835952v-122.99928689z m-144.97740968-266.49502459V286.50816763a42.20704962 42.20704962 0 0 1 42.20705046-42.10415579L337.07307763 244.46574814v164.63013025H193.02171326a40.21090933 40.21090933 0 0 1-41.28100599-40.66364219z m43.31830382 0l100.54785251-0.92604446V287.61942099h-101.65910587zM275.33677838 779.5136731H132.29377353A42.20704962 42.20704962 0 0 1 90.12788144 737.43009607V655.42371243a40.06685798 40.06685798 0 0 1 41.15753257-40.54016959h144.05136438v164.63013026z m-41.38389898-122.97870731h-101.65910587l1.11125335 80.89513028 100.54785252-0.92604446v-79.96908582z" p-id="7036" fill="#707473"></path></svg>