<?xml version="1.0" standalone="no"?><!DOCTYPE svg PUBLIC "-//W3C//DTD SVG 1.1//EN" "http://www.w3.org/Graphics/SVG/1.1/DTD/svg11.dtd"><svg t="1558579421524" class="icon" style="" viewBox="0 0 1024 1024" version="1.1" xmlns="http://www.w3.org/2000/svg" p-id="6719" xmlns:xlink="http://www.w3.org/1999/xlink" width="200" height="200"><defs><style type="text/css"></style></defs><path d="M963.545778 747.24963l1.969193-117.107902 57.736736 19.061787v78.432954zM689.827965 728.601373v-78.767716l98.459645-19.691929h157.535432v118.151574h-157.535432z m216.611219-59.075787l-119.116479 0.334763-61.04498 15.103709v6.931559l62.009885 17.013827h118.151574v-39.383858z m-260.839292-138.001038H287.836926a69.177747 69.177747 0 0 0-69.551893 68.646064c0 37.847888 39.383858 69.354974 77.704352 69.354974h275.687006v-19.691929h39.383858v78.767716h-39.383858v-19.691929h-275.687006c-60.276995 0-117.462356-49.229823-117.462357-108.738832A108.71914 108.71914 0 0 1 287.836926 492.298225h357.762966a68.646064 68.646064 0 1 0 0-137.292129h-192.075075V374.146651h-39.383858v-78.767716h39.383858v20.440222h192.075075a107.872387 107.872387 0 1 1 0 215.705391zM355.065172 295.378935h39.383858v78.767716h-39.383858v-78.767716z m-275.687006 98.459645v-118.151574h157.535432l98.459645 19.691929v78.767716l-98.459645 19.691929h-157.535432z m217.320128-61.872041L236.913598 315.070864h-118.151574v39.383858h118.151574l59.784696-15.556624v-6.931559zM0.61045 295.378935l58.662256-18.7861v117.659276L0.61045 374.146651v-78.767716z m669.525586 433.222438h-39.383858v-78.767716h39.383858v78.767716z" p-id="6720" fill="#707473"></path></svg>