<?xml version="1.0" standalone="no"?><!DOCTYPE svg PUBLIC "-//W3C//DTD SVG 1.1//EN" "http://www.w3.org/Graphics/SVG/1.1/DTD/svg11.dtd"><svg t="1558579525223" class="icon" style="" viewBox="0 0 1024 1024" version="1.1" xmlns="http://www.w3.org/2000/svg" p-id="6877" xmlns:xlink="http://www.w3.org/1999/xlink" width="200" height="200"><defs><style type="text/css"></style></defs><path d="M789.16143799 214.86916602c0-24.10099453-13.08339668-46.13618935-33.741392-57.8423874L687.93726113 89.54399375C671.41086435 72.32899766 647.99847002 62.6886002 623.89747549 62.6886002H407.67712315c-24.10099453 0-46.82478955 9.64039746-64.03978565 26.85539355L275.46595244 157.71537881c-19.96939599 12.39479737-31.67559316 34.42999219-31.67559316 57.8423874v659.67865312c0 37.18439209 30.98699297 67.48278487 68.17138506 67.48278487h23.41239521c2.06579971 12.39479737 13.77199687 20.65799531 26.16679424 18.5921956 9.64039746-1.37719951 17.21499609-8.95179815 18.59219561-18.5921956h273.37413955c2.06579971 12.39479737 13.77199687 20.65799531 26.16679336 18.5921956 9.64039746-1.37719951 17.21499609-8.95179815 18.59219648-18.5921956h24.10099454c37.18439209 0 67.48278487-30.98699297 67.48278485-68.17138506l-0.68860019-659.67865312z m-413.15990801-92.96097891c8.95179815-8.26319795 19.96939599-13.08339668 32.36419336-13.08339756h216.22035146c12.39479737 0 23.41239521 4.82019873 32.36419336 13.08339756l25.47819405 25.47819404H350.52333594l25.47819404-25.47819404z m344.98852383 775.36342705H311.96174434c-12.39479737 0-22.03519482-10.32899766-22.72379502-22.72379502V590.84468281h45.44759003V454.50191269H289.23794932V215.55776621c0-12.39479737 10.32899766-22.72379502 22.72379501-22.72379502h409.02830948c12.39479737 0 22.72379502 10.32899766 22.72379502 22.72379502V874.54781914c0 12.39479737-10.32899766 22.72379502-22.72379502 22.72379502z" fill="#707473" p-id="6878"></path></svg>