<?xml version="1.0" standalone="no"?><!DOCTYPE svg PUBLIC "-//W3C//DTD SVG 1.1//EN" "http://www.w3.org/Graphics/SVG/1.1/DTD/svg11.dtd"><svg t="1558577759031" class="icon" style="" viewBox="0 0 1024 1024" version="1.1" xmlns="http://www.w3.org/2000/svg" p-id="5615" xmlns:xlink="http://www.w3.org/1999/xlink" width="200" height="200"><defs><style type="text/css"></style></defs><path d="M975.693973 657.803908H374.517992v-32.019809h-16.757575a32.507421 32.507421 0 0 1-32.507421 32.50742H146.299646a146.283392 146.283392 0 1 1 0-292.566784h178.790813a32.507421 32.507421 0 0 1 32.50742 32.50742h16.757576v-32.019809h601.175981a48.338534 48.338534 0 0 1 48.468564 48.273519v195.044523a48.338534 48.338534 0 0 1-48.306027 48.27352zM146.299646 398.232155a113.775972 113.775972 0 1 0 0 227.551944h113.775972v-16.741322h-56.887986a97.03465 97.03465 0 1 1 0-194.0693h56.887986v-16.741322h-113.775972z m113.775972 179.278424v-131.004904h-56.887986a65.502452 65.502452 0 1 0 0 131.004904h56.887986z m113.775972-146.771003h-16.253711a32.507421 32.507421 0 0 1-32.50742-32.507421h-32.507421v227.551944h32.507421a32.507421 32.507421 0 0 1 32.50742-32.507421h16.253711v-162.537102z m618.404914-16.253711a16.773829 16.773829 0 0 0-16.741322-16.741321H406.066443v0.487611h0.487612v227.551944h-0.487612v0.487611h569.62753a16.773829 16.773829 0 0 0 16.741322-16.741322v-195.044523z m-163.089729 146.283393h130.029682v32.50742h-130.029682v-32.50742z m0-130.029682h130.029682v32.50742h-130.029682v-32.50742z m113.775972 97.522261h-113.775972v-32.50742h113.775972v32.50742z" p-id="5616" fill="#707473"></path></svg>