<?xml version="1.0" standalone="no"?><!DOCTYPE svg PUBLIC "-//W3C//DTD SVG 1.1//EN" "http://www.w3.org/Graphics/SVG/1.1/DTD/svg11.dtd"><svg t="1558578484949" class="icon" style="" viewBox="0 0 1024 1024" version="1.1" xmlns="http://www.w3.org/2000/svg" p-id="6245" xmlns:xlink="http://www.w3.org/1999/xlink" width="200" height="200"><defs><style type="text/css"></style></defs><path d="M961.98269258 624.4891833a51.92207842 51.92207842 0 0 1-51.92207842 51.92207842H113.92207842a51.92207842 51.92207842 0 0 1-51.92207842-51.92207842v-121.15151631a51.80092734 51.80092734 0 0 1 25.02644151-44.20299639l-2.64802589-2.64802588 88.63098839-88.63098837A68.79675411 68.79675411 0 0 1 221.97192383 347.57143174h580.03884492a68.79675411 68.79675411 0 0 1 48.96251982 20.28422461l88.63098838 88.63098838-2.6653333 2.64802587A51.78361992 51.78361992 0 0 1 961.98269258 503.33766699v121.15151631z m-135.48200977-232.16092031a34.4416456 34.4416456 0 0 0-24.48991406-10.14211231H221.97192383a34.42433818 34.42433818 0 0 0-24.48991406 10.14211231L138.39468506 451.41558857h747.19332246zM927.36797364 503.33766699a17.30735947 17.30735947 0 0 0-17.30735948-17.30735947H113.92207842a17.30735947 17.30735947 0 0 0-17.30735947 17.30735947v121.15151631a17.30735947 17.30735947 0 0 0 17.30735947 17.30735947h796.13853574a17.30735947 17.30735947 0 0 0 17.30735948-17.30735947v-121.1515163z m-69.22943789 69.22943789h34.61471894v34.61471895h-34.61471894v-34.61471895z m0-51.92207842h34.61471894v34.61471895h-34.61471894v-34.61471895z m-69.22943789 51.92207842h34.61471894v34.61471895h-34.61471894v-34.61471895z m0-51.92207842h34.61471894v34.61471895h-34.61471894v-34.61471895z m-69.22943789 51.92207842h34.61471894v34.61471895h-34.61471894v-34.61471895z m0-51.92207842h34.61471894v34.61471895h-34.61471894v-34.61471895z m-69.2294379 51.92207842h34.61471895v34.61471895h-34.61471895v-34.61471895z m0-51.92207842h34.61471895v34.61471895h-34.61471895v-34.61471895z m-69.22943789 51.92207842h34.61471894v34.61471895h-34.61471894v-34.61471895z m0-51.92207842h34.61471894v34.61471895h-34.61471894v-34.61471895z m-415.37662734 51.92207842h69.22943789v34.61471895H165.84415684v-34.61471895z m0-51.92207842h69.22943789v34.61471895H165.84415684v-34.61471895z" p-id="6246" fill="#707473"></path></svg>