<?xml version="1.0" standalone="no"?><!DOCTYPE svg PUBLIC "-//W3C//DTD SVG 1.1//EN" "http://www.w3.org/Graphics/SVG/1.1/DTD/svg11.dtd"><svg t="1558578356573" class="icon" style="" viewBox="0 0 1024 1024" version="1.1" xmlns="http://www.w3.org/2000/svg" p-id="6087" xmlns:xlink="http://www.w3.org/1999/xlink" width="200" height="200"><defs><style type="text/css"></style></defs><path d="M927.36797364 736.98701943H667.75758154a34.61471894 34.61471894 0 0 1-34.61471894-34.61471894v-69.22943789a34.61471894 34.61471894 0 0 1 34.61471894-34.61471895h259.6103921a34.61471894 34.61471894 0 0 1 34.61471894 34.61471895v69.22943789a34.61471894 34.61471894 0 0 1-34.61471895 34.61471894z m-259.6103921-103.84415683v69.22943789h34.61471895v-69.22943789h-34.61471895z m259.6103921 0H736.98701943v69.22943789h190.38095421v-69.22943789z m-328.83982999-103.84415684H321.61039209c-33.40320381 0-51.92207842 24.40337695-51.92207842 57.80658077S288.20718828 650.45022207 321.61039209 650.45022207h207.68831367v-17.30735947h34.61471895v69.22943789h-34.61471895v-17.30735947H321.61039209c-52.49322158 0-86.53679737-45.48374033-86.53679736-97.9596545S269.11717051 494.68398682 321.61039209 494.68398682h276.91775156c33.40320381 0 69.22943789-29.95903916 69.22943789-63.34493555S631.93134746 373.53247051 598.52814365 373.53247051h-103.84415683v17.30735947h-34.61471895v-69.22943789h34.61471895v17.30735947h103.84415683c52.49322158 0 103.84415683 39.94538555 103.84415684 92.42129971S651.02136523 529.29870576 598.52814365 529.29870576zM408.14718945 321.61039209h34.61471894v69.22943789h-34.61471894v-69.22943789z m-51.92207841 103.84415684H96.61471894a34.61471894 34.61471894 0 0 1-34.61471894-34.61471895v-69.22943789a34.61471894 34.61471894 0 0 1 34.61471894-34.61471894h259.6103921a34.61471894 34.61471894 0 0 1 34.61471894 34.61471894v69.22943789a34.61471894 34.61471894 0 0 1-34.61471894 34.61471895z m-69.22943789-103.84415684H96.61471894v69.22943789h190.38095421v-69.22943789z m69.22943789 0h-34.61471895v69.22943789h34.61471895v-69.22943789z m259.61039209 380.7619084h-34.61471895v-69.22943789h34.61471894v69.22943789z" p-id="6088" fill="#707473"></path></svg>