<?xml version="1.0" standalone="no"?><!DOCTYPE svg PUBLIC "-//W3C//DTD SVG 1.1//EN" "http://www.w3.org/Graphics/SVG/1.1/DTD/svg11.dtd"><svg t="1558579138366" class="icon" style="" viewBox="0 0 1024 1024" version="1.1" xmlns="http://www.w3.org/2000/svg" p-id="6403" xmlns:xlink="http://www.w3.org/1999/xlink" width="200" height="200"><defs><style type="text/css"></style></defs><path d="M910.06061416 676.41126172H113.92207842a51.92207842 51.92207842 0 0 1-51.92207842-51.92207842v-121.1515163a51.92207842 51.92207842 0 0 1 51.92207842-51.92207843h27.44947178l83.55993222-83.55993222a68.79675411 68.79675411 0 0 1 48.96251982-20.28422461h476.19468809a68.79675411 68.79675411 0 0 1 48.96251983 20.28422461l83.55993222 83.55993222H910.06061416a51.92207842 51.92207842 0 0 1 51.92207842 51.92207843v121.1515163a51.92207842 51.92207842 0 0 1-51.92207842 51.92207842z m-135.48200976-284.08299873a34.4416456 34.4416456 0 0 0-24.48991407-10.14211231H273.89400224a34.42433818 34.42433818 0 0 0-24.48991406 10.14211231L190.31676348 451.41558857h643.34916563zM927.36797364 503.33766699a17.30735947 17.30735947 0 0 0-17.30735948-17.30735947H113.92207842a17.30735947 17.30735947 0 0 0-17.30735947 17.30735947v121.15151631a17.30735947 17.30735947 0 0 0 17.30735947 17.30735947h796.13853574a17.30735947 17.30735947 0 0 0 17.30735948-17.30735947v-121.1515163z m-77.8831172 103.84415684A43.26839912 43.26839912 0 1 1 892.75325469 563.91342471a43.26839912 43.26839912 0 0 1-43.26839824 43.26839912z m0-69.22943789A25.96103965 25.96103965 0 1 0 875.44589521 563.91342471a25.96103965 25.96103965 0 0 0-25.96103877-25.96103877z m-112.49783701 34.61471895h34.61471895v34.61471894h-34.61471895v-34.61471894z m0-51.92207843h34.61471895v34.61471895h-34.61471895v-34.61471895z m-69.22943789 51.92207843h34.61471895v34.61471894h-34.61471895v-34.61471894z m0-51.92207843h34.61471895v34.61471895h-34.61471895v-34.61471895z m-69.22943789 51.92207843h34.61471895v34.61471894h-34.61471895v-34.61471894z m0-51.92207843h34.61471895v34.61471895h-34.61471895v-34.61471895z m-346.14718945 51.92207843h34.61471895v34.61471894h-34.61471895v-34.61471894z m0-51.92207843h34.61471895v34.61471895h-34.61471895v-34.61471895z m-77.88311719 86.53679737A43.26839912 43.26839912 0 1 1 217.76623526 563.91342471a43.26839912 43.26839912 0 0 1-43.26839825 43.26839912z m0-69.22943789A25.96103965 25.96103965 0 1 0 200.45887578 563.91342471a25.96103965 25.96103965 0 0 0-25.96103877-25.96103877z" p-id="6404" fill="#707473"></path></svg>