<?xml version="1.0" standalone="no"?><!DOCTYPE svg PUBLIC "-//W3C//DTD SVG 1.1//EN" "http://www.w3.org/Graphics/SVG/1.1/DTD/svg11.dtd"><svg t="1558578255364" class="icon" style="" viewBox="0 0 1024 1024" version="1.1" xmlns="http://www.w3.org/2000/svg" p-id="5929" xmlns:xlink="http://www.w3.org/1999/xlink" width="200" height="200"><defs><style type="text/css"></style></defs><path d="M969.142857 676.571429H128v-18.285715H109.714286a36.571429 36.571429 0 0 1-36.571429 36.571429H36.571429a36.571429 36.571429 0 0 1-36.571429-36.571429V365.714286a36.571429 36.571429 0 0 1 36.571429-36.571429h36.571428a36.571429 36.571429 0 0 1 36.571429 36.571429h18.285714v-18.285715h841.142857a54.857143 54.857143 0 0 1 54.857143 54.857143v219.428572a54.857143 54.857143 0 0 1-54.857143 54.857143zM128 402.285714H109.714286a36.571429 36.571429 0 0 1-36.571429-36.571428H36.571429v292.571428h36.571428a36.571429 36.571429 0 0 1 36.571429-36.571428h18.285714V402.285714z m859.428571 0a18.285714 18.285714 0 0 0-18.285714-18.285714H164.571429v256h804.571428a18.285714 18.285714 0 0 0 18.285714-18.285714V402.285714z m-219.428571 164.571429h182.857143v36.571428H768v-36.571428z m0-146.285714h182.857143v36.571428H768v-36.571428z m-91.428571 182.857142H256a36.571429 36.571429 0 0 1-36.571429-36.571428v-109.714286a36.571429 36.571429 0 0 1 36.571429-36.571428h420.571429a36.571429 36.571429 0 0 1 36.571428 36.571428v109.714286a36.571429 36.571429 0 0 1-36.571428 36.571428z m0-146.285714H256v109.714286h420.571429v-109.714286z m256 73.142857h-164.571429v-36.571428h164.571429v36.571428z" p-id="5930" fill="#707473"></path></svg>