<?xml version="1.0" standalone="no"?><!DOCTYPE svg PUBLIC "-//W3C//DTD SVG 1.1//EN" "http://www.w3.org/Graphics/SVG/1.1/DTD/svg11.dtd"><svg t="1558578111078" class="icon" style="" viewBox="0 0 1024 1024" version="1.1" xmlns="http://www.w3.org/2000/svg" p-id="5771" xmlns:xlink="http://www.w3.org/1999/xlink" width="200" height="200"><defs><style type="text/css"></style></defs><path d="M975.693973 657.803908H374.517992v-32.019809h-16.757575a32.507421 32.507421 0 0 1-32.507421 32.50742H107.079443a107.144458 107.144458 0 0 1-107.063189-106.998174v-78.570436a107.144458 107.144458 0 0 1 107.063189-106.998174h218.173553a32.507421 32.507421 0 0 1 32.507421 32.50742h16.741321v-32.019809h601.175981a48.354788 48.354788 0 0 1 48.322281 48.273519v195.044523a48.354788 48.354788 0 0 1-48.306027 48.27352zM107.079443 398.232155a74.588276 74.588276 0 0 0-74.555769 74.490754v78.570436a74.588276 74.588276 0 0 0 74.555769 74.490754h153.126205v-227.551944H107.079443z m266.950937 32.507421h-16.25371a32.507421 32.507421 0 0 1-32.50742-32.507421h-32.507421v227.551944h32.507421a32.507421 32.507421 0 0 1 32.50742-32.507421h16.25371v-162.537102z m618.404915-16.253711a16.773829 16.773829 0 0 0-16.741322-16.741321H406.066443v0.487611h0.487612v227.551944h-0.487612v0.487611h569.62753a16.773829 16.773829 0 0 0 16.741322-16.741322v-195.044523z m-163.089729 146.283393h130.029682v32.50742h-130.029682v-32.50742z m0-130.029682h130.029682v32.50742h-130.029682v-32.50742z m113.775972 97.522261h-113.775972v-32.50742h113.775972v32.50742z" p-id="5772" fill="#707473"></path></svg>