<?xml version="1.0" standalone="no"?><!DOCTYPE svg PUBLIC "-//W3C//DTD SVG 1.1//EN" "http://www.w3.org/Graphics/SVG/1.1/DTD/svg11.dtd"><svg t="1558579258644" class="icon" style="" viewBox="0 0 1024 1024" version="1.1" xmlns="http://www.w3.org/2000/svg" p-id="6561" xmlns:xlink="http://www.w3.org/1999/xlink" width="200" height="200"><defs><style type="text/css"></style></defs><path d="M866.25531933 703.48936133H540.7234042v18.21063867h-38.29787227v-76.2702126h38.29787227V665.19148906h325.53191513a57.44680839 57.44680839 0 0 0 57.4468084-53.13829746V411.81276552a52.60212773 52.60212773 0 0 0-52.65957481-52.42978651H693.91489326v19.14893612h-38.29787227v-76.27021259h38.29787227v19.14893613h177.12765966a90.88085127 90.88085127 0 0 1 90.95744708 90.57446807v200.24042519a95.74468067 95.74468067 0 0 1-95.74468067 91.2638294zM598.1702126 302.16595713h38.29787227v76.27021347h-38.29787227v-76.27021347zM330.08510674 397.1063832v-114.89361767h153.19148906l96.77872353 23.32340507v69.52978653L483.2765958 397.1063832h-153.19148906z m209.60425459-60.165958L483.2765958 320.51063867l-113.85957481 1.74255293v36.09574453h111.37021349l58.90212685-14.66808486v-6.74042608zM253.48936133 359.45957481v18.97659579H215.19148906v-76.27021347h38.29787227v19.14893613l57.44680927-0.13404199v38.14468066l-19.14893613 0.17234034h-38.29787314zM425.8297874 646.04255293v76.59574453l-95.74468066 19.14893702H176.8936168v-114.89361768h153.19148994z m-210.63829834 57.4468084h114.89361768l56.41276553-16.54468067v-6.75957392L330.08510674 665.19148906H215.19148906v38.29787227z m-57.44680839-0.93829747l-19.14893614 0.17234034H100.29787227v18.9765958H62V646.04255293h38.29787227v18.6893622l57.44680839 0.45957393v37.3595748z m325.53191513 19.14893614h-38.29787226v-76.2702126h38.29787226v76.2702126z" p-id="6562" fill="#707473"></path></svg>