<?xml version="1.0" standalone="no"?><!DOCTYPE svg PUBLIC "-//W3C//DTD SVG 1.1//EN" "http://www.w3.org/Graphics/SVG/1.1/DTD/svg11.dtd"><svg t="1558942275119" class="icon" style="" viewBox="0 0 1024 1024" version="1.1" xmlns="http://www.w3.org/2000/svg" p-id="5862" xmlns:xlink="http://www.w3.org/1999/xlink" width="200" height="200"><defs><style type="text/css"></style></defs><path d="M419.28 904.849h172.063v-333.142c0-16.473 1.83-34.779 7.321-45.761 10.983-32.949 40.271-67.726 87.861-67.726 62.237 0 87.861 51.251 87.861 124.47v320.329h172.063v-342.295c0-170.234-84.201-248.941-197.689-248.941-91.524 0-148.265 54.915-170.234 91.524h-3.663l-7.321-78.709h-150.098c1.83 51.251 3.663 111.658 3.663 184.878v395.379zM195.963 75.652c-54.915 0-91.524 38.441-89.692 91.524-1.83 49.422 34.779 89.692 89.692 89.692 56.743 0 93.354-40.271 93.354-89.692-3.663-53.085-38.441-91.524-93.354-91.524zM281.995 904.849v-578.422h-172.063v578.422h172.063z" fill="#333333" p-id="5863"></path></svg>