<?xml version="1.0" standalone="no"?><!DOCTYPE svg PUBLIC "-//W3C//DTD SVG 1.1//EN" "http://www.w3.org/Graphics/SVG/1.1/DTD/svg11.dtd"><svg t="1559269441320" class="icon" style="" viewBox="0 0 1024 1024" version="1.1" xmlns="http://www.w3.org/2000/svg" p-id="6279" xmlns:xlink="http://www.w3.org/1999/xlink" width="200" height="200"><defs><style type="text/css"></style></defs><path d="M713 574.5H310.4c-16.6 0-30-13.4-30-30s13.4-30 30-30H713c16.6 0 30 13.4 30 30s-13.5 30-30 30zM713 766.5H310.4c-16.6 0-30-13.4-30-30s13.4-30 30-30H713c16.6 0 30 13.4 30 30s-13.5 30-30 30zM322 386.8c-22.1 0-41.3-14.2-47.8-35.4-6.5-21.3 1.6-43.9 20.2-56.3 14-9.3 29.3-18 42.8-25.7 12.1-6.9 23.6-13.4 31.4-18.8 27.8-19.3 43.6-48.6 47.1-87.2 2.3-25.8 11-48.6 25.1-66 17.3-21.2 42.2-32.9 70.1-32.9h2c27.7 0 55.2 14.2 73.4 37.9 13.7 17.9 17 36.4 19.6 51.2 0.7 3.7 1.3 7.2 2 10.7 6.3 28.9 23.3 54.6 47.9 72.2 6.2 4.5 12.9 9 20 13.7 20.9 14.1 44.6 30 63.7 50.7 13.5 14.6 17.1 35.8 9.2 54-7.9 18.2-25.8 30-45.6 30.1l-380.9 1.8h-0.2z m373.4-45zM512.8 124.6h-2c-28.4 0-34.3 30.9-35.5 44.2-5 56.3-30.2 101.7-72.7 131.2-10 7-22.6 14.1-35.9 21.7-2.9 1.7-5.9 3.3-8.8 5l319.4-1.5c-11-8.8-23.2-17-35.1-25.1-7.1-4.8-14.5-9.8-21.4-14.8-36.7-26.3-62.1-64.8-71.5-108.2-1-4.6-1.8-8.9-2.5-13-2.2-12.4-3.6-19.2-8.2-25.2-6.8-8.8-16.7-14.3-25.8-14.3z" p-id="6280" fill="#333333"></path><path d="M828.6 959.6H194.7c-71.7 0-130-58.3-130-130v-538c0-71.7 58.3-130 130-130h45.8c16.6 0 30 13.4 30 30s-13.4 30-30 30h-45.8c-38.6 0-70 31.4-70 70v538c0 38.6 31.4 70 70 70h633.8c38.6 0 70-31.4 70-70v-538c0-38.6-31.4-70-70-70h-44.8c-16.6 0-30-13.4-30-30s13.4-30 30-30h44.8c71.7 0 130 58.3 130 130v538c0.1 71.7-58.2 130-129.9 130z" p-id="6281" fill="#333333"></path></svg>