<?xml version="1.0" standalone="no"?><!DOCTYPE svg PUBLIC "-//W3C//DTD SVG 1.1//EN" "http://www.w3.org/Graphics/SVG/1.1/DTD/svg11.dtd"><svg t="1559269517480" class="icon" style="" viewBox="0 0 1028 1024" version="1.1" xmlns="http://www.w3.org/2000/svg" p-id="6444" xmlns:xlink="http://www.w3.org/1999/xlink" width="200.78125" height="200"><defs><style type="text/css"></style></defs><path d="M455 992c-24 0-54-12-72-30l-324-324c-36-36-36-102 0-144l420-420c18-18 42-30 72-30L899 32c30 0 54 12 72 30C989 80 995 104 995 134l-12 336c0 24-12 54-30 72l-420 420C509 980 485 992 455 992zM899 92L563 104c-12 0-24 6-30 12l-420 420c-18 18-18 42 0 60l324 324c12 12 42 12 60 0l420-420c6-6 12-18 12-30L935 134c0-12-6-18-12-30C917 98 905 92 899 92z" p-id="6445"></path><path d="M689 470c-36 0-66-12-90-36C575 404 557 374 557 338S575 272 599 248C623 224 653 212 689 212c36 0 66 12 90 36 48 48 48 132 0 180C755 452 725 470 689 470zM689 272c-18 0-36 6-48 18C629 302 617 320 617 338s6 36 18 48c24 24 72 24 96 0 24-24 24-72 0-96C725 278 707 272 689 272z" p-id="6446"></path></svg>