<?xml version="1.0" standalone="no"?><!DOCTYPE svg PUBLIC "-//W3C//DTD SVG 1.1//EN" "http://www.w3.org/Graphics/SVG/1.1/DTD/svg11.dtd"><svg t="1558424018482" class="icon" style="" viewBox="0 0 1024 1024" version="1.1" xmlns="http://www.w3.org/2000/svg" p-id="5277" xmlns:xlink="http://www.w3.org/1999/xlink" width="200" height="200"><defs><style type="text/css"></style></defs><path d="M456.7 847.3c-52.8 0-104-10.3-152.2-30.8-46.6-19.7-88.4-47.9-124.3-83.8-35.9-35.9-64.1-77.7-83.8-124.3C76 560.2 65.6 509 65.6 456.2s10.3-104 30.8-152.2c19.7-46.6 47.9-88.4 83.8-124.3 35.9-35.9 77.7-64.1 124.3-83.8 48.2-20.4 99.5-30.8 152.2-30.8s104 10.3 152.2 30.8c46.6 19.7 88.4 47.9 124.3 83.8 35.9 35.9 64.1 77.7 83.8 124.3 20.4 48.2 30.8 99.5 30.8 152.2s-10.3 104-30.8 152.2c-19.7 46.6-47.9 88.4-83.8 124.3-35.9 35.9-77.7 64.1-124.3 83.8-48.2 20.4-99.4 30.8-152.2 30.8z m0-692.2c-166 0-301.1 135.1-301.1 301.1s135.1 301.1 301.1 301.1c166 0 301.1-135.1 301.1-301.1S622.7 155.1 456.7 155.1z" fill="#333333" p-id="5278"></path><path d="M916.5 958.6c-11.5 0-23-4.4-31.8-13.2l-206-205.9c-17.6-17.6-17.6-46.1 0-63.6 17.6-17.6 46.1-17.6 63.6 0l205.9 205.9c17.6 17.6 17.6 46.1 0 63.6-8.7 8.8-20.2 13.2-31.7 13.2z" fill="#333333" p-id="5279"></path></svg>