<?xml version="1.0" standalone="no"?><!DOCTYPE svg PUBLIC "-//W3C//DTD SVG 1.1//EN" "http://www.w3.org/Graphics/SVG/1.1/DTD/svg11.dtd"><svg t="1559269148241" class="icon" style="" viewBox="0 0 1024 1024" version="1.1" xmlns="http://www.w3.org/2000/svg" p-id="6120" xmlns:xlink="http://www.w3.org/1999/xlink" width="200" height="200"><defs><style type="text/css"></style></defs><path d="M510.7 960.1c-44.9 0-83.7-27.4-98.8-69.7l-10-28.1c-4.3-12.1-13.2-21.5-25.1-26.4-11.9-4.9-24.8-4.6-36.4 0.9l-26.9 12.8c-40.6 19.3-87.4 11.2-119.1-20.6-31.8-31.8-39.8-78.5-20.6-119.1l12.8-26.9c5.5-11.6 5.8-24.5 0.9-36.4s-14.3-20.8-26.4-25.1l-28.1-10c-42.3-15.1-69.7-53.8-69.7-98.8 0-44.9 27.4-83.7 69.7-98.8l28.1-10c12.1-4.3 21.5-13.2 26.4-25.1s4.6-24.8-0.9-36.4l-12.8-26.9c-19.3-40.6-11.2-87.4 20.6-119.1 31.8-31.8 78.5-39.8 119.1-20.6l26.9 12.8c11.6 5.5 24.5 5.8 36.4 0.9 11.9-4.9 20.8-14.3 25.1-26.4l10-28.1c15.1-42.3 53.8-69.7 98.8-69.7s83.7 27.4 98.8 69.7l10 28.1c4.3 12.1 13.2 21.5 25.1 26.4 11.9 4.9 24.8 4.6 36.4-0.9l26.9-12.8c40.6-19.3 87.4-11.2 119.1 20.6 31.8 31.8 39.8 78.5 20.6 119.1l-12.8 26.9c-5.5 11.6-5.8 24.5-0.9 36.4 4.9 11.9 14.3 20.8 26.4 25.1l28.1 10c42.3 15.1 69.7 53.8 69.7 98.8 0 44.9-27.4 83.7-69.7 98.8l-28.1 10c-12.1 4.3-21.5 13.2-26.4 25.1s-4.6 24.8 0.9 36.4l12.8 26.9c19.3 40.6 11.2 87.4-20.6 119.1s-78.5 39.8-119.1 20.6L681 836.8c-11.6-5.5-24.5-5.8-36.4-0.9-11.9 4.9-20.8 14.3-25.1 26.4l-10 28.1c-15.1 42.3-53.9 69.7-98.8 69.7z m-151-187.6c13.6 0 27.3 2.6 40.1 8 27.4 11.3 48.7 33.8 58.7 61.7l10 28.1c7.8 22 26.9 29.8 42.2 29.8 15.3 0 34.4-7.8 42.2-29.8l10-28.1c9.9-27.9 31.3-50.4 58.7-61.7 27.4-11.3 58.4-10.5 85.1 2.2l26.9 12.8c21.1 10 40.1 2 50.9-8.8 10.8-10.8 18.8-29.9 8.8-51l-12.8-26.9c-12.7-26.7-13.5-57.8-2.2-85.1 11.3-27.4 33.8-48.7 61.7-58.7l28.1-10c22-7.8 29.8-26.9 29.8-42.2 0-15.3-7.8-34.4-29.8-42.2l-28.1-10c-27.9-9.9-50.4-31.3-61.7-58.7s-10.5-58.4 2.2-85.1l12.8-26.9c10-21.1 2-40.1-8.8-50.9-10.8-10.8-29.9-18.8-50.9-8.8L706.7 243c-26.7 12.7-57.8 13.5-85.1 2.2-27.4-11.3-48.7-33.8-58.7-61.7l-10-28.1c-7.8-22-26.9-29.8-42.2-29.8-15.3 0-34.4 7.8-42.2 29.8l-10 28.1c-9.9 27.9-31.3 50.4-58.7 61.7-27.4 11.3-58.4 10.5-85.1-2.2l-26.9-12.8c-21.1-10-40.1-2-50.9 8.8-10.8 10.8-18.8 29.9-8.8 50.9l12.8 26.9c12.7 26.7 13.5 57.8 2.2 85.1-11.3 27.4-33.8 48.7-61.7 58.7l-28.1 10c-22 7.8-29.8 26.9-29.8 42.2 0 15.3 7.8 34.4 29.8 42.2l28.1 10c27.9 9.9 50.4 31.3 61.7 58.7 11.3 27.4 10.5 58.4-2.2 85.1L228 735.7c-10 21.1-2 40.1 8.8 50.9 10.8 10.8 29.9 18.8 50.9 8.8l26.9-12.8c14.3-6.7 29.7-10.1 45.1-10.1z" fill="#333333" p-id="6121"></path><path d="M510.7 708.6c-108 0-195.8-87.8-195.8-195.8 0-108 87.8-195.8 195.8-195.8s195.8 87.8 195.8 195.8c0 107.9-87.9 195.8-195.8 195.8z m0-331.6c-74.9 0-135.8 60.9-135.8 135.8s60.9 135.8 135.8 135.8 135.8-60.9 135.8-135.8S585.5 377 510.7 377z" fill="#333333" p-id="6122"></path></svg>