<?xml version="1.0" standalone="no"?><!DOCTYPE svg PUBLIC "-//W3C//DTD SVG 1.1//EN" "http://www.w3.org/Graphics/SVG/1.1/DTD/svg11.dtd"><svg t="1559270294927" class="icon" style="" viewBox="0 0 1024 1024" version="1.1" xmlns="http://www.w3.org/2000/svg" p-id="6808" xmlns:xlink="http://www.w3.org/1999/xlink" width="200" height="200"><defs><style type="text/css"></style></defs><path d="M515.74229168 962c-248.1440625 0-450.065625-201.9225-450.065625-450.065625S267.73041668 62 515.74229168 62c248.1440625 0 450.065625 201.9225 450.065625 450.065625S763.88635418 962 515.74229168 962z m0-828.1584375c-208.5253125 0-378.225 169.69875-378.225 378.225S307.21697918 890.290625 515.74229168 890.290625s378.225-169.6996875 378.225-378.225-169.5675-378.2240625-378.225-378.2240625z m0 0" p-id="6809"></path><path d="M468.59635418 434.4134375h94.4240625v336.2296875h-94.425z m-11.7534375-121.8928125c0 32.619375 26.4121875 59.0315625 59.0315625 59.0315625s59.0315625-26.4121875 59.0315625-59.0315625-26.4121875-59.0315625-59.0315625-59.0315625-59.0315625 26.4121875-59.0315625 59.0315625z m0 0" p-id="6810"></path></svg>