<?xml version="1.0" standalone="no"?><!DOCTYPE svg PUBLIC "-//W3C//DTD SVG 1.1//EN" "http://www.w3.org/Graphics/SVG/1.1/DTD/svg11.dtd"><svg t="1558942358881" class="icon" style="" viewBox="0 0 1024 1024" version="1.1" xmlns="http://www.w3.org/2000/svg" p-id="6559" xmlns:xlink="http://www.w3.org/1999/xlink" width="200" height="200"><defs><style type="text/css"></style></defs><path d="M628.004571 710.875429l0 120.539429q0 38.253714-22.308571 38.253714-13.165714 0-25.746286-12.580571l0-172.032q12.580571-12.580571 25.746286-12.580571 22.308571 0 22.308571 38.253714zM821.174857 711.460571l0 26.258286-51.419429 0 0-26.258286q0-38.838857 25.746286-38.838857t25.746286 38.838857zM269.165714 586.825143l61.147429 0 0-53.686857-178.322286 0 0 53.686857 59.977143 0 0 325.12 57.124571 0 0-325.12zM433.737143 912.018286l50.834286 0 0-282.258286-50.834286 0 0 215.990857q-17.115429 23.990857-32.548571 23.990857-10.313143 0-11.995429-11.995429-0.585143-1.682286-0.585143-19.968l0-208.018286-50.834286 0 0 223.451429q0 28.013714 4.534857 41.691429 6.875429 21.138286 33.133714 21.138286 27.428571 0 58.294857-34.889143l0 30.866286zM678.838857 827.465143l0-112.566857q0-41.691429-5.12-56.539429-9.728-32.036571-40.594286-32.036571-28.598857 0-53.174857 30.866286l0-123.977143-50.834286 0 0 378.88 50.834286 0 0-27.428571q25.746286 31.451429 53.174857 31.451429 30.866286 0 40.594286-31.451429 5.12-15.433143 5.12-57.124571zM872.009143 821.686857l0-7.460571-52.004571 0q0 29.110857-1.170286 34.889143-4.022857 20.553143-22.820571 20.553143-26.258286 0-26.258286-39.424l0-49.737143 102.253714 0 0-58.88q0-45.129143-15.433143-66.267429-22.308571-29.110857-60.562286-29.110857-38.838857 0-61.147429 29.110857-16.018286 21.138286-16.018286 66.267429l0 98.889143q0 45.129143 16.603429 66.267429 22.308571 29.110857 61.732571 29.110857 41.179429 0 61.732571-30.281143 10.313143-15.433143 11.995429-30.866286 1.170286-5.12 1.170286-33.133714zM524.580571 300.032l0-120.027429q0-39.424-24.576-39.424t-24.576 39.424l0 120.027429q0 40.009143 24.576 40.009143t24.576-40.009143zM935.424 729.161143q0 133.705143-14.848 199.972571-7.972571 33.718857-33.133714 56.539429t-58.294857 26.258286q-105.179429 11.995429-317.147429 11.995429t-317.147429-11.995429q-33.133714-3.437714-58.587429-26.258286t-32.841143-56.539429q-14.848-64-14.848-199.972571 0-133.705143 14.848-199.972571 7.972571-33.718857 33.133714-56.539429t58.88-26.843429q104.594286-11.410286 316.562286-11.410286t317.147429 11.410286q33.133714 4.022857 58.587429 26.843429t32.841143 56.539429q14.848 64 14.848 199.972571zM365.129143 0l58.294857 0-69.12 227.986286 0 154.843429-57.124571 0 0-154.843429q-7.972571-42.276571-34.889143-121.124571-21.138286-58.88-37.156571-106.861714l60.562286 0 40.594286 150.308571zM576.585143 190.317714l0 99.986286q0 46.299429-16.018286 67.437714-21.138286 29.110857-60.562286 29.110857-38.253714 0-59.977143-29.110857-16.018286-21.723429-16.018286-67.437714l0-99.986286q0-45.714286 16.018286-66.852571 21.723429-29.110857 59.977143-29.110857 39.424 0 60.562286 29.110857 16.018286 21.138286 16.018286 66.852571zM768 97.718857l0 285.110857-52.004571 0 0-31.451429q-30.281143 35.401143-58.88 35.401143-26.258286 0-33.718857-21.138286-4.534857-13.677714-4.534857-42.861714l0-225.133714 52.004571 0 0 209.700571q0 18.870857 0.585143 19.968 1.682286 12.580571 11.995429 12.580571 15.433143 0 32.548571-24.576l0-217.746286 52.004571 0z" p-id="6560" fill="#333333"></path></svg>